<?xml version="1.0" encoding="UTF-8" standalone="no"?>
<!-- Generator: Adobe Illustrator 19.0.0, SVG Export Plug-In . SVG Version: 6.00 Build 0)  -->

<svg
   xmlns:dc="http://purl.org/dc/elements/1.1/"
   xmlns:cc="http://creativecommons.org/ns#"
   xmlns:rdf="http://www.w3.org/1999/02/22-rdf-syntax-ns#"
   xmlns:svg="http://www.w3.org/2000/svg"
   xmlns="http://www.w3.org/2000/svg"
   xmlns:sodipodi="http://sodipodi.sourceforge.net/DTD/sodipodi-0.dtd"
   xmlns:inkscape="http://www.inkscape.org/namespaces/inkscape"
   version="1.1"
   id="Layer_1"
   x="0px"
   y="0px"
   viewBox="0 0 495 495"
   style="enable-background:new 0 0 495 495;"
   xml:space="preserve"
   sodipodi:docname="pyramids.svg"
   inkscape:version="0.92.4 (5da689c313, 2019-01-14)"><metadata
   id="metadata3937"><rdf:RDF><cc:Work
       rdf:about=""><dc:format>image/svg+xml</dc:format><dc:type
         rdf:resource="http://purl.org/dc/dcmitype/StillImage" /><dc:title></dc:title></cc:Work></rdf:RDF></metadata><defs
   id="defs3935" /><sodipodi:namedview
   pagecolor="#ffffff"
   bordercolor="#666666"
   borderopacity="1"
   objecttolerance="10"
   gridtolerance="10"
   guidetolerance="10"
   inkscape:pageopacity="0"
   inkscape:pageshadow="2"
   inkscape:window-width="1920"
   inkscape:window-height="1017"
   id="namedview3933"
   showgrid="false"
   inkscape:zoom="0.47676768"
   inkscape:cx="247.5"
   inkscape:cy="247.5"
   inkscape:window-x="-8"
   inkscape:window-y="-8"
   inkscape:window-maximized="1"
   inkscape:current-layer="Layer_1" />
<g
   id="g3900">
	<path
   style="fill:#FFA733;"
   d="M379.942,243.25c25.956-6.124,55.431-10.323,90.093-11.689L327.52,65.275v116.812L379.942,243.25z"
   id="path3888" />
	<polygon
   style="fill:#FFC477;"
   points="327.52,65.275 277.462,123.681 327.52,182.086  "
   id="polygon3890" />
	<path
   style="fill:#CC7400;"
   d="M247.5,298.705c38.989-21.303,77.98-42.606,132.442-55.455l-52.422-61.164l-50.058-58.405   L197.44,30.315v242.271C214.881,280.879,231.191,289.792,247.5,298.705z"
   id="path3892" />
	<path
   style="fill:#EE8700;"
   d="M197.44,30.315L24.957,231.561c76.973,3.03,128.357,20.042,172.483,41.025V30.315z"
   id="path3894" />
	<path
   style="fill:#FFDE55;"
   d="M247.5,298.705c-16.309-8.914-32.619-17.826-50.06-26.119   c-44.126-20.983-95.51-37.995-172.483-41.025c-8.037-0.316-16.342-0.486-24.957-0.486v233.61h495v-98.36   C371.25,366.325,309.38,332.515,247.5,298.705z"
   id="path3896" />
	<path
   style="fill:#FFCD00;"
   d="M470.035,231.562c-34.662,1.365-64.137,5.565-90.093,11.689   c-54.462,12.849-93.453,34.152-132.442,55.455c61.88,33.81,123.75,67.62,247.5,67.62v-135.25   C486.382,231.075,478.074,231.245,470.035,231.562z"
   id="path3898" />
</g>
<g
   id="g3902">
</g>
<g
   id="g3904">
</g>
<g
   id="g3906">
</g>
<g
   id="g3908">
</g>
<g
   id="g3910">
</g>
<g
   id="g3912">
</g>
<g
   id="g3914">
</g>
<g
   id="g3916">
</g>
<g
   id="g3918">
</g>
<g
   id="g3920">
</g>
<g
   id="g3922">
</g>
<g
   id="g3924">
</g>
<g
   id="g3926">
</g>
<g
   id="g3928">
</g>
<g
   id="g3930">
</g>
<path
   style="fill:#b380ff;fill-opacity:1;stroke:#aad400;stroke-width:2.09745765"
   d="m 354.85229,212.86156 -25.55144,-29.89403 v -56.71258 c 0,-55.845207 0.0612,-56.649311 4.00131,-52.575925 2.20072,2.275159 33.49206,38.587395 69.5363,80.693855 l 65.53498,76.5572 -20.77041,1.47582 c -18.8251,1.33759 -51.8667,6.15372 -62.86197,9.16272 -3.56183,0.97475 -8.90579,-4.15792 -29.88877,-28.70706 z"
   id="path3939"
   inkscape:connector-curvature="0" /><path
   style="fill:#ccaaff;fill-opacity:1;stroke:#aad400;stroke-width:2.09745765"
   d="m 304.13136,154.18755 c -12.11282,-14.1232 -22.77126,-26.92587 -23.68542,-28.45037 -1.12446,-1.8752 5.99952,-11.68558 22.02331,-30.328157 l 23.68541,-27.556346 0.58437,27.40377 c 0.32141,15.072073 0.32141,40.275093 0,56.006713 l -0.58437,28.60294 z"
   id="path3941"
   inkscape:connector-curvature="0" /><path
   style="fill:#55ff55;fill-opacity:1;stroke:#aad400;stroke-width:2.09745765"
   d="m 222.85487,284.28303 -23.5964,-12.6431 V 152.77941 c 0,-100.4093 0.44349,-118.383756 2.85689,-115.789247 1.57129,1.689203 22.92462,26.667676 47.45184,55.507718 24.52722,28.840039 52.74468,61.874999 62.70548,73.411019 43.92975,50.8769 63.64273,74.17525 63.92139,75.54729 0.16475,0.81129 -7.33358,3.67878 -16.66299,6.37219 -9.32941,2.69341 -24.4311,7.86221 -33.55932,11.48626 -17.26802,6.85565 -69.6469,32.49558 -73.12324,35.79448 -3.28181,3.11429 -5.4092,2.34643 -29.99365,-10.82609 z"
   id="path3943"
   inkscape:connector-curvature="0" /><path
   style="fill:#aaffaa;fill-opacity:1;stroke:#aad400;stroke-width:2.09745765"
   d="M 188.77119,267.67991 C 154.51239,250.25954 80.286206,232.15025 42.597303,232.01724 c -5.988327,-0.0211 -11.45122,-0.94995 -12.139763,-2.06404 -0.688543,-1.11408 36.302099,-45.8298 82.20143,-99.36826 l 83.45332,-97.342654 0.55653,59.516569 c 0.30609,32.734115 0.30609,86.322485 0,119.085265 l -0.55653,59.5687 z"
   id="path3945"
   inkscape:connector-curvature="0" /><path
   style="fill:#000055;fill-opacity:1;stroke:#aad400;stroke-width:2.09745765"
   d="m 0,348.38771 v -116.4089 h 11.231429 c 48.074477,0 112.466561,11.868 159.140301,29.33089 6.53435,2.44481 40.48323,18.89956 75.44196,36.56612 34.95872,17.66655 72.07307,35.51107 82.47633,39.65447 38.05174,15.15524 87.94254,25.0231 141.01612,27.89145 L 495,366.81037 v 48.99312 48.99312 H 247.5 0 Z"
   id="path3947"
   inkscape:connector-curvature="0" /><path
   style="fill:#453748;fill-opacity:1;stroke:#aad400;stroke-width:2.09745765"
   d="m 482.41525,364.83546 c -59.09154,-4.05536 -97.24374,-10.31361 -133.7477,-21.93914 -19.29285,-6.14425 -96.97263,-42.01439 -96.97263,-44.77899 0,-3.13847 73.71538,-37.13457 97.07495,-44.76908 37.52001,-12.26251 94.52482,-21.33871 134.16975,-21.36227 L 495,231.97881 v 67.11865 c 0,36.91525 -0.70789,66.95374 -1.57309,66.7522 -0.8652,-0.20154 -5.82045,-0.65793 -11.01166,-1.0142 z"
   id="path3949"
   inkscape:connector-curvature="0" /><path
   style="fill:#453748;fill-opacity:1;stroke:#aad400;stroke-width:2.09745765"
   d="M 2.0974576,348.38771 V 234.07627 H 16.268149 c 21.011635,0 65.106755,5.60527 92.662241,11.779 39.75615,8.90726 63.86483,17.96834 112.42279,42.25332 66.95214,33.48434 106.71566,51.82827 125.77606,58.0237 32.97723,10.719 76.40665,18.18201 124.27436,21.35559 l 21.49894,1.42536 v 46.89296 46.89295 H 247.5 2.0974576 Z"
   id="path3951"
   inkscape:connector-curvature="0" /></svg>